<?xml version="1.0" encoding="UTF-8"?>
<svg version="1.1" xmlns="http://www.w3.org/2000/svg" width="100" height="100">
<path d="M0 0 C0.76166977 0.00222061 1.52333954 0.00444122 2.30809021 0.00672913 C3.16890701 0.00680466 4.02972382 0.00688019 4.91662598 0.00695801 C5.8520372 0.01211929 6.78744843 0.01728058 7.75120544 0.02259827 C8.70422043 0.02401321 9.65723541 0.02542816 10.63912964 0.02688599 C13.69605085 0.032503 16.75289996 0.04505836 19.80979919 0.05775452 C21.87685543 0.06276733 23.94391281 0.06733061 26.01097107 0.07142639 C31.08977507 0.08247795 36.16852489 0.09975397 41.24729919 0.12025452 C42.08976827 3.21333872 42.25645904 5.38000448 41.75901794 8.56166077 C41.56469177 9.80786194 41.56469177 9.80786194 41.36643982 11.07923889 C41.15277771 12.36797913 41.15277771 12.36797913 40.93479919 13.68275452 C40.80395935 14.54578186 40.67311951 15.4088092 40.53831482 16.29798889 C39.50262754 22.73726201 39.50262754 22.73726201 37.24729919 26.12025452 C37.90729919 26.12025452 38.56729919 26.12025452 39.24729919 26.12025452 C39.08229919 27.09607483 38.91729919 28.07189514 38.74729919 29.07728577 C38.13936479 33.33817817 38.17924288 37.51284934 38.24729919 41.80775452 C38.35273537 61.62164513 38.35273537 61.62164513 33.24729919 69.12025452 C32.81019273 72.00268302 32.62419055 74.81700554 32.52073669 77.72962952 C32.24729919 80.12025452 32.24729919 80.12025452 30.24729919 82.12025452 C28.12425232 82.37904358 28.12425232 82.37904358 25.52854919 82.38587952 C24.59655701 82.38845764 23.66456482 82.39103577 22.70433044 82.39369202 C21.72851013 82.38595764 20.75268982 82.37822327 19.74729919 82.37025452 C18.28356873 82.38185608 18.28356873 82.38185608 16.79026794 82.39369202 C15.85827576 82.39111389 14.92628357 82.38853577 13.96604919 82.38587952 C13.10946716 82.38362366 12.25288513 82.3813678 11.37034607 82.37904358 C9.24729919 82.12025452 9.24729919 82.12025452 7.24729919 80.12025452 C6.93889121 77.4238876 6.86877141 74.75415833 6.78636169 72.04212952 C6.44232346 68.97812236 6.44232346 68.97812236 4.28636169 66.47181702 C1.38590266 61.70439585 1.33712194 57.231976 0.99729919 51.74525452 C0.91995544 50.72302795 0.84261169 49.70080139 0.76292419 48.64759827 C0.57537903 46.13918165 0.40400638 43.63075459 0.24729919 41.12025452 C-0.45910706 41.75189514 -1.16551331 42.38353577 -1.89332581 43.03431702 C-6.94598856 46.72027591 -13.15088582 47.3830009 -19.32301331 46.93275452 C-25.11042911 45.83412643 -29.73845005 43.78660084 -33.38160706 38.96400452 C-34.8974646 36.71396055 -36.33765063 34.43462874 -37.75270081 32.12025452 C-38.41270081 31.13025452 -39.07270081 30.14025452 -39.75270081 29.12025452 C-39.50270081 25.49525452 -39.50270081 25.49525452 -38.75270081 22.12025452 C-38.09270081 21.79025452 -37.43270081 21.46025452 -36.75270081 21.12025452 C-36.13945413 19.57696549 -35.58610503 18.00960939 -35.06520081 16.43275452 C-33.07646169 11.21418346 -30.47403822 8.08889126 -25.75270081 5.12025452 C-22.16268471 3.92358249 -19.16221691 3.91486571 -15.37770081 3.87025452 C-13.41703674 3.83158264 -13.41703674 3.83158264 -11.41676331 3.79212952 C-7.63142627 4.13111492 -5.77925759 4.90000051 -2.75270081 7.12025452 C-2.77332581 6.15087952 -2.79395081 5.18150452 -2.81520081 4.18275452 C-2.73366621 0.18755951 -2.73366621 0.18755951 0 0 Z " fill="#F8FBFE" transform="translate(48.75270080566406,8.879745483398438)"/>
<path d="M0 0 C3.92888981 3.58724722 6.13218079 7.61339084 7.875 12.625 C7.875 13.945 7.875 15.265 7.875 16.625 C9.195 17.285 10.515 17.945 11.875 18.625 C11.45245524 24.01244574 10.46283256 26.62712943 6.875 30.625 C6.276875 31.635625 5.67875 32.64625 5.0625 33.6875 C1.44879716 38.54018667 -2.64945303 40.61169706 -8.5 41.5 C-15.8427643 42.01286769 -22.48924307 40.50932267 -28.125 35.625 C-30.31099927 32.73130313 -32.23439576 29.71716296 -34.125 26.625 C-34.785 25.635 -35.445 24.645 -36.125 23.625 C-35.875 20 -35.875 20 -35.125 16.625 C-34.465 16.295 -33.805 15.965 -33.125 15.625 C-32.51175333 14.08171097 -31.95840423 12.51435487 -31.4375 10.9375 C-29.44876089 5.71892895 -26.84633741 2.59363675 -22.125 -0.375 C-15.92373402 -2.44208866 -6.07436662 -2.8752002 0 0 Z " fill="#FDFAF8" transform="translate(45.125,14.375)"/>
<path d="M0 0 C0.69512695 -0.00478363 1.39025391 -0.00956726 2.10644531 -0.01449585 C3.57228872 -0.01788977 5.03820833 -0.00872231 6.50390625 0.01220703 C8.74390886 0.03898967 10.97890266 0.01245251 13.21875 -0.01953125 C14.64584436 -0.01622705 16.07293561 -0.00982058 17.5 0 C19.44132812 0.00845947 19.44132812 0.00845947 21.421875 0.01708984 C24.75 0.6640625 24.75 0.6640625 27.18261719 2.97045898 C30.54209349 8.74383936 28.58180236 16.15861367 27.5 22.4765625 C27.39042969 23.22615234 27.28085937 23.97574219 27.16796875 24.74804688 C26.24886173 30.16110349 26.24886173 30.16110349 24.05566406 32.37231445 C21.14147729 34.00498728 19.14439899 34.05168883 15.8125 34.0625 C14.09933594 34.06830078 14.09933594 34.06830078 12.3515625 34.07421875 C11.16304687 34.06261719 9.97453125 34.05101562 8.75 34.0390625 C6.96722656 34.05646484 6.96722656 34.05646484 5.1484375 34.07421875 C4.00632812 34.07035156 2.86421875 34.06648438 1.6875 34.0625 C0.12322266 34.05742432 0.12322266 34.05742432 -1.47265625 34.05224609 C-4.64748735 33.60850652 -6.00410667 32.92840193 -8.25 30.6640625 C-9.03648643 27.86147094 -9.58257456 25.33224357 -10 22.4765625 C-10.12503906 21.74630859 -10.25007812 21.01605469 -10.37890625 20.26367188 C-12.41083701 7.65900249 -12.41083701 7.65900249 -9.68261719 2.97045898 C-6.40229128 -0.13966133 -4.47315989 0.01949211 0 0 Z " fill="#FB5498" transform="translate(20.25,57.3359375)"/>
<path d="M0 0 C0.99 0 1.98 0 3 0 C3.28241454 28.24145365 3.28241454 28.24145365 -2 36 C-2.43710647 38.88242851 -2.62310864 41.69675103 -2.7265625 44.609375 C-3 47 -3 47 -5 49 C-7.12304687 49.25878906 -7.12304687 49.25878906 -9.71875 49.265625 C-10.65074219 49.26820312 -11.58273438 49.27078125 -12.54296875 49.2734375 C-13.51878906 49.26570313 -14.49460937 49.25796875 -15.5 49.25 C-16.96373047 49.26160156 -16.96373047 49.26160156 -18.45703125 49.2734375 C-19.38902344 49.27085938 -20.32101563 49.26828125 -21.28125 49.265625 C-22.13783203 49.26336914 -22.99441406 49.26111328 -23.87695312 49.25878906 C-26 49 -26 49 -28 47 C-28.2734375 44.609375 -28.2734375 44.609375 -28.375 41.75 C-28.64474543 37.88864412 -28.77861577 36.32515808 -31 33.0625 C-34.09596416 28.32180488 -33.84264647 23.55326836 -34 18 C-34.0515625 16.83597656 -34.103125 15.67195313 -34.15625 14.47265625 C-34.40657194 5.20031444 -34.40657194 5.20031444 -31 1 C-30.66445694 4.60396454 -30.33194526 8.20820245 -30 11.8125 C-29.90460937 12.83666016 -29.80921875 13.86082031 -29.7109375 14.91601562 C-29.57558594 16.39038086 -29.57558594 16.39038086 -29.4375 17.89453125 C-29.35371094 18.80050049 -29.26992188 19.70646973 -29.18359375 20.63989258 C-29 23 -29 23 -29 26 C-20.09 26 -11.18 26 -2 26 C-1.71071377 17.81768379 -1.71071377 17.81768379 -1.43188477 9.63500977 C-1.39377686 8.62237061 -1.35566895 7.60973145 -1.31640625 6.56640625 C-1.27974854 5.52427979 -1.24309082 4.48215332 -1.20532227 3.40844727 C-1 1 -1 1 0 0 Z " fill="#14B8FC" transform="translate(84,42)"/>
<path d="M0 0 C3.92888981 3.58724722 6.13218079 7.61339084 7.875 12.625 C7.875 13.945 7.875 15.265 7.875 16.625 C9.195 17.285 10.515 17.945 11.875 18.625 C11.45245524 24.01244574 10.46283256 26.62712943 6.875 30.625 C6.276875 31.635625 5.67875 32.64625 5.0625 33.6875 C2.26405739 37.44540864 0.13184632 38.68328063 -4.125 40.625 C-7.0625 40.875 -7.0625 40.875 -9.125 40.625 C-6.36104223 37.77728594 -3.57023194 35.14115611 -0.5 32.625 C3.8467828 28.93824929 5.9037188 24.93229553 7.875 19.625 C6.885 19.295 5.895 18.965 4.875 18.625 C3.91796875 16.26171875 3.91796875 16.26171875 3.0625 13.3125 C1.43779809 8.40643673 1.43779809 8.40643673 -2.1875 4.9375 C-5.04527362 3.42102997 -5.04527362 3.42102997 -8.125 3.625 C-7.795 3.955 -7.465 4.285 -7.125 4.625 C-6.9375 7.0625 -6.9375 7.0625 -7.125 9.625 C-7.785 10.285 -8.445 10.945 -9.125 11.625 C-10.445 11.625 -11.765 11.625 -13.125 11.625 C-13.125 8.625 -13.125 8.625 -11.125 6.625 C-11.785 5.635 -12.445 4.645 -13.125 3.625 C-16.51810282 3.17258629 -18.65164751 3.42685245 -21.8125 4.75 C-26.32479239 8.40861545 -27.45879424 13.02887159 -28.125 18.625 C-29.115 18.955 -30.105 19.285 -31.125 19.625 C-31.125 21.275 -31.125 22.925 -31.125 24.625 C-30.135 24.955 -29.145 25.285 -28.125 25.625 C-27.67125 26.553125 -27.2175 27.48125 -26.75 28.4375 C-24.95692446 31.95468664 -23.23422701 33.27412104 -20.125 35.625 C-18.75131655 37.25856951 -17.40562485 38.9175002 -16.125 40.625 C-21.18311136 40.14327511 -24.21369463 38.88442114 -28.125 35.625 C-30.31865089 32.73669299 -32.23430644 29.71730904 -34.125 26.625 C-34.785 25.635 -35.445 24.645 -36.125 23.625 C-35.875 20 -35.875 20 -35.125 16.625 C-34.465 16.295 -33.805 15.965 -33.125 15.625 C-32.51175333 14.08171097 -31.95840423 12.51435487 -31.4375 10.9375 C-29.44876089 5.71892895 -26.84633741 2.59363675 -22.125 -0.375 C-15.92373402 -2.44208866 -6.07436662 -2.8752002 0 0 Z " fill="#FAB22A" transform="translate(45.125,14.375)"/>
<path d="M0 0 C9.9 0 19.8 0 30 0 C29 10 29 10 27 16 C19.08 16 11.16 16 3 16 C1 10 1 10 0 0 Z " fill="#F2B2BF" transform="translate(14,71)"/>
<path d="M0 0 C0.76166977 0.00222061 1.52333954 0.00444122 2.30809021 0.00672913 C3.16890701 0.00680466 4.02972382 0.00688019 4.91662598 0.00695801 C5.8520372 0.01211929 6.78744843 0.01728058 7.75120544 0.02259827 C8.70422043 0.02401321 9.65723541 0.02542816 10.63912964 0.02688599 C13.69605085 0.032503 16.75289996 0.04505836 19.80979919 0.05775452 C21.87685543 0.06276733 23.94391281 0.06733061 26.01097107 0.07142639 C31.08977507 0.08247795 36.16852489 0.09975397 41.24729919 0.12025452 C42.11027602 3.27127766 42.2354978 5.43011878 41.68870544 8.66712952 C41.48084412 9.93363342 41.48084412 9.93363342 41.26878357 11.22572327 C41.11731873 12.09841858 40.96585388 12.97111389 40.80979919 13.87025452 C40.66220154 14.75841858 40.51460388 15.64658264 40.36253357 16.56166077 C39.99794905 18.74916787 39.62597853 20.93515094 39.24729919 23.12025452 C38.25729919 23.12025452 37.26729919 23.12025452 36.24729919 23.12025452 C36.22032782 20.5160186 36.2004743 17.91206207 36.18479919 15.30775452 C36.17642029 14.56976624 36.16804138 13.83177795 36.15940857 13.07142639 C36.14470091 9.82103384 36.21198218 7.22620557 37.24729919 4.12025452 C25.69729919 4.12025452 14.14729919 4.12025452 2.24729919 4.12025452 C2.24729919 5.11025452 2.24729919 6.10025452 2.24729919 7.12025452 C12.14729919 7.12025452 22.04729919 7.12025452 32.24729919 7.12025452 C32.24729919 8.44025452 32.24729919 9.76025452 32.24729919 11.12025452 C22.67729919 11.12025452 13.10729919 11.12025452 3.24729919 11.12025452 C2.91729919 12.44025452 2.58729919 13.76025452 2.24729919 15.12025452 C-0.756967 10.3715757 -2.40799973 6.86527243 -2.75270081 1.12025452 C-1.75270081 0.12025452 -1.75270081 0.12025452 0 0 Z " fill="#18B9FC" transform="translate(48.75270080566406,8.879745483398438)"/>
<path d="M0 0 C7.59 0 15.18 0 23 0 C24.23887548 2.47775095 24.16741669 4.23653707 24.1875 7 C24.20167969 7.886875 24.21585938 8.77375 24.23046875 9.6875 C24 12 24 12 22 14 C19.87695312 14.25878906 19.87695312 14.25878906 17.28125 14.265625 C16.34925781 14.26820312 15.41726562 14.27078125 14.45703125 14.2734375 C13.48121094 14.26570313 12.50539063 14.25796875 11.5 14.25 C10.52417969 14.25773437 9.54835938 14.26546875 8.54296875 14.2734375 C7.61097656 14.27085938 6.67898437 14.26828125 5.71875 14.265625 C4.86216797 14.26336914 4.00558594 14.26111328 3.12304688 14.25878906 C1 14 1 14 -1 12 C-1.23046875 9.6875 -1.23046875 9.6875 -1.1875 7 C-1.18105469 6.113125 -1.17460938 5.22625 -1.16796875 4.3125 C-1 2 -1 2 0 0 Z " fill="#0055D2" transform="translate(57,77)"/>
<path d="M0 0 C1.0725 0.01417969 2.145 0.02835938 3.25 0.04296875 C4.3225 0.04941406 5.395 0.05585937 6.5 0.0625 C9.25 0.23046875 9.25 0.23046875 11.25 1.23046875 C11.229375 2.46796875 11.20875 3.70546875 11.1875 4.98046875 C11.1704523 7.40124216 11.2264471 9.15338654 11.9375 11.48046875 C12.25 13.23046875 12.25 13.23046875 11.25 15.35546875 C8.39454655 18.03245636 6.09940732 18.64327102 2.25 19.23046875 C-0.46763617 18.17361024 -2.67146233 17.30900642 -4.75 15.23046875 C-4.87537741 13.08738979 -4.92574364 10.93967989 -4.9375 8.79296875 C-4.95167969 7.61863281 -4.96585938 6.44429687 -4.98046875 5.234375 C-4.67682671 1.27673551 -3.99177302 0.3345378 0 0 Z " fill="#F85398" transform="translate(29.75,36.76953125)"/>
<path d="M0 0 C9.9 0 19.8 0 30 0 C30.33 1.65 30.66 3.3 31 5 C20.44 5 9.88 5 -1 5 C-0.67 3.35 -0.34 1.7 0 0 Z " fill="#FEF4F9" transform="translate(14,62)"/>
<path d="M0 0 C5.61 0 11.22 0 17 0 C17 2.31 17 4.62 17 7 C11.39 7 5.78 7 0 7 C0 4.69 0 2.38 0 0 Z " fill="#8FABF7" transform="translate(60,80)"/>
<path d="M0 0 C7.59 0 15.18 0 23 0 C22.34 1.65 21.68 3.3 21 5 C14.73 5 8.46 5 2 5 C1.34 3.35 0.68 1.7 0 0 Z " fill="#88E3FA" transform="translate(57,72)"/>
<path d="M0 0 C0.99 0.33 1.98 0.66 3 1 C3 2.32 3 3.64 3 5 C5.64 5 8.28 5 11 5 C11.33 3.68 11.66 2.36 12 1 C12.99 1 13.98 1 15 1 C15.6875 2.75 15.6875 2.75 16 5 C14.4553327 8.28241801 13.03890833 8.98311525 9.6875 10.4375 C5.32300484 11.10327045 3.65549597 10.34996169 0 8 C-0.33 7.67 -0.66 7.34 -1 7 C-0.71269945 4.66055264 -0.38063221 2.3260857 0 0 Z " fill="#2163C6" transform="translate(26,45)"/>
<path d="M0 0 C6.27 0 12.54 0 19 0 C19 0.99 19 1.98 19 3 C12.73 3 6.46 3 0 3 C0 2.01 0 1.02 0 0 Z " fill="#0156D3" transform="translate(59,52)"/>
<path d="M0 0 C3.63 0 7.26 0 11 0 C11.33 1.32 11.66 2.64 12 4 C7.71 4 3.42 4 -1 4 C-0.67 2.68 -0.34 1.36 0 0 Z " fill="#2C73DA" transform="translate(63,58)"/>
<path d="M0 0 C0.99 0 1.98 0 3 0 C3 0.99 3 1.98 3 3 C3.99 3.33 4.98 3.66 6 4 C6 4.99 6 5.98 6 7 C5.01 7 4.02 7 3 7 C3 7.99 3 8.98 3 10 C2.01 10 1.02 10 0 10 C0 9.01 0 8.02 0 7 C-0.99 7 -1.98 7 -3 7 C-3 6.01 -3 5.02 -3 4 C-2.01 4 -1.02 4 0 4 C0 2.68 0 1.36 0 0 Z " fill="#1262D6" transform="translate(67,33)"/>
<path d="M0 0 C2.5625 0.3125 2.5625 0.3125 4.4375 1.5625 C5.5625 3.3125 5.5625 3.3125 5.25 5.5 C4.9096875 6.3971875 4.9096875 6.3971875 4.5625 7.3125 C3.5725 6.9825 2.5825 6.6525 1.5625 6.3125 C1.5625 5.6525 1.5625 4.9925 1.5625 4.3125 C0.5725 4.3125 -0.4175 4.3125 -1.4375 4.3125 C-1.7675 5.3025 -2.0975 6.2925 -2.4375 7.3125 C-3.0975 7.3125 -3.7575 7.3125 -4.4375 7.3125 C-4.5625 4.9375 -4.5625 4.9375 -4.4375 2.3125 C-2.4375 0.3125 -2.4375 0.3125 0 0 Z " fill="#2BBFFD" transform="translate(25.4375,27.6875)"/>
<path d="M0 0 C2.4375 0.75 2.4375 0.75 4.4375 2.75 C4.0625 4.875 4.0625 4.875 3.4375 6.75 C2.7775 6.75 2.1175 6.75 1.4375 6.75 C1.1075 6.09 0.7775 5.43 0.4375 4.75 C-0.5525 4.42 -1.5425 4.09 -2.5625 3.75 C-2.5625 4.74 -2.5625 5.73 -2.5625 6.75 C-3.5525 6.75 -4.5425 6.75 -5.5625 6.75 C-5.75 4.375 -5.75 4.375 -5.5625 1.75 C-2.5625 -0.25 -2.5625 -0.25 0 0 Z " fill="#29BEFD" transform="translate(41.5625,28.25)"/>
<path d="M0 0 C3.3 0 6.6 0 10 0 C10 1.32 10 2.64 10 4 C6.7 4 3.4 4 0 4 C0 2.68 0 1.36 0 0 Z " fill="#2D67CF" transform="translate(24,80)"/>
<path d="M0 0 C3.3 0 6.6 0 10 0 C8 4 8 4 6.125 4.9375 C4 5 4 5 1.75 3.6875 C1.1725 3.130625 0.595 2.57375 0 2 C0 1.34 0 0.68 0 0 Z " fill="#FBACB9" transform="translate(28,40)"/>
<path d="M0 0 C3.63 0 7.26 0 11 0 C11 0.99 11 1.98 11 3 C7.37 3 3.74 3 0 3 C0 2.01 0 1.02 0 0 Z " fill="#0F5CD1" transform="translate(27,74)"/>
<path d="M0 0 C3.3 0 6.6 0 10 0 C9.67 0.99 9.34 1.98 9 3 C6.36 3 3.72 3 1 3 C0.67 2.01 0.34 1.02 0 0 Z " fill="#F4F3FA" transform="translate(28,48)"/>
</svg>
