<?xml version="1.0" encoding="UTF-8"?>
<svg version="1.1" xmlns="http://www.w3.org/2000/svg" width="100" height="100">
<path d="M0 0 C7.61965761 4.4520749 14.3971425 10.02436541 16.875 18.8125 C17.93286084 24.41236886 17.22639434 30.02652164 16.69140625 35.65234375 C16.24149291 38.71254468 16.24149291 38.71254468 17.5 40.8125 C18.10505733 46.13700454 16.59152906 48.56164754 13.5 52.8125 C13.35575631 55.08971834 13.35575631 55.08971834 15 57.9375 C16.83303576 62.1473429 17.0169785 65.23354754 16.5 69.8125 C14.5625 72.4375 14.5625 72.4375 12.5 74.8125 C11.70309162 78.00012109 11.70309162 78.00012109 11.5 80.8125 C12.16386719 81.080625 12.82773438 81.34875 13.51171875 81.625 C19.27075396 84.1808346 22.67059125 86.47030569 25.85546875 91.9453125 C26.5 93.8125 26.5 93.8125 25.5 96.8125 C0.42 96.8125 -24.66 96.8125 -50.5 96.8125 C-51.5 93.8125 -51.5 93.8125 -50.6015625 91.69140625 C-46.77980095 85.69589144 -43.27758588 82.96626618 -36.5 80.8125 C-36.83910434 77.16712837 -37.1236757 75.24584314 -39.5625 72.4375 C-41.75047166 69.4731513 -42.01292776 67.53053438 -41.83984375 63.875 C-41.2918398 60.54918293 -39.95528336 57.84434033 -38.5 54.8125 C-38.30394277 52.51535076 -38.30394277 52.51535076 -40.5 50.0625 C-42.69250395 46.49968108 -42.95400829 44.89857465 -42.5 40.8125 C-42.17 39.8225 -41.84 38.8325 -41.5 37.8125 C-41.63930966 35.60060371 -41.83436485 33.392006 -42.0625 31.1875 C-42.82445123 20.87999308 -41.6718497 15.10823127 -34.86328125 7.1171875 C-25.56842592 -1.94721687 -12.1570418 -5.90273415 0 0 Z M-28.5 63.8125 C-27.1302836 67.80750618 -25.24277578 70.61259492 -22.5 73.8125 C-22.17 72.1625 -21.84 70.5125 -21.5 68.8125 C-24.67337748 65.56598408 -24.67337748 65.56598408 -28.5 63.8125 Z M-3.5 68.8125 C-3.17 70.4625 -2.84 72.1125 -2.5 73.8125 C0.24277578 70.61259492 2.1302836 67.80750618 3.5 63.8125 C1.09244254 63.8125 -1.74568759 67.31946816 -3.5 68.8125 Z " fill="#A0536C" transform="translate(62.5,3.1875)"/>
<path d="M0 0 C3.74665018 1.51307026 6.2386497 3.11859099 9 6 C10.2375 6.7115625 10.2375 6.7115625 11.5 7.4375 C14.19351895 9.12094934 15.46225076 10.23205138 17 13 C17.6875 16.75 17.6875 16.75 18 20 C17.15695313 19.75443359 17.15695313 19.75443359 16.296875 19.50390625 C13.86940944 18.97135003 11.73110319 18.90101319 9.25 18.9375 C8.05117188 18.95103516 8.05117188 18.95103516 6.828125 18.96484375 C6.22484375 18.97644531 5.6215625 18.98804687 5 19 C4.67 19.66 4.34 20.32 4 21 C8.62 21 13.24 21 18 21 C18.02690104 23.79173055 18.04679053 26.58320348 18.0625 29.375 C18.07087891 30.1690625 18.07925781 30.963125 18.08789062 31.78125 C18.11328125 37.7734375 18.11328125 37.7734375 17 40 C16.01 40 15.02 40 14 40 C14.061875 41.11375 14.12375 42.2275 14.1875 43.375 C14.0946875 45.169375 14.0946875 45.169375 14 47 C13.01 47.66 12.02 48.32 11 49 C11 48.34 11 47.68 11 47 C10.34 47 9.68 47 9 47 C9.33 48.32 9.66 49.64 10 51 C5.57963554 54.78888382 2.50919662 57.09124351 -3.4375 56.875 C-7.39530795 55.90290682 -9.84226016 54.55626559 -13 52 C-13.495 50.515 -13.495 50.515 -14 49 C-13.67 48.34 -13.34 47.68 -13 47 C-13.66 47 -14.32 47 -15 47 C-15.33 47.66 -15.66 48.32 -16 49 C-18 47 -18 47 -18.125 43.375 C-18.08375 42.26125 -18.0425 41.1475 -18 40 C-18.99 40 -19.98 40 -21 40 C-22.25433458 36.23699626 -22.10695422 32.72789091 -22.0625 28.8125 C-22.05798828 28.06291016 -22.05347656 27.31332031 -22.04882812 26.54101562 C-22.03706354 24.69397617 -22.01912865 22.84697787 -22 21 C-17.38 21 -12.76 21 -8 21 C-8.33 20.34 -8.66 19.68 -9 19 C-15.08408472 18.80185739 -15.08408472 18.80185739 -21 20 C-20 17 -20 17 -17.75 14.875 C-14.81305582 11.80455836 -13.12116412 8.84228918 -11.2109375 5.0859375 C-8.22882242 -0.05099623 -5.94612655 -0.60469084 0 0 Z " fill="#F7ABA4" transform="translate(52,15)"/>
<path d="M0 0 C6.01910514 4.49689902 11.57245624 9.71736873 14 17 C14.09485782 19.1649902 14.12988077 21.33293823 14.125 23.5 C14.12886719 25.21703125 14.12886719 25.21703125 14.1328125 26.96875 C14 30 14 30 13 33 C12.01 33 11.02 33 10 33 C9.72285156 31.95199219 9.44570312 30.90398438 9.16015625 29.82421875 C8.79432048 28.44529933 8.42843233 27.0663938 8.0625 25.6875 C7.78889648 24.65206055 7.78889648 24.65206055 7.50976562 23.59570312 C6.7406739 20.70112156 5.94738424 17.84215271 5 15 C3.35212038 14.28816084 1.68195791 13.62708835 0 13 C-1.43758346 11.98739559 -2.8545128 10.94487352 -4.25 9.875 C-8.28364389 7.11407513 -11.11263002 6.3819729 -15.95703125 6.59375 C-18.42288556 7.08409197 -19.92271055 7.54589738 -22 9 C-23.92247372 12.19122035 -25.49189876 15.48682669 -27.12109375 18.8359375 C-29.07694814 22.12958003 -31.005786 23.6898945 -34 26 C-35.35835671 29.62473109 -35.35835671 29.62473109 -36 33 C-36.99 33 -37.98 33 -39 33 C-41.07500829 26.77497514 -41.2382643 18.74304484 -38.5 12.6875 C-34.70698639 6.31631699 -28.43547389 -0.3156004 -21.22265625 -2.55078125 C-13.96936413 -4.0167366 -6.41877658 -3.82657835 0 0 Z " fill="#B16A86" transform="translate(63,7)"/>
<path d="M0 0 C4.62 0 9.24 0 14 0 C14.28875 1.11375 14.5775 2.2275 14.875 3.375 C15.69241329 7.00291092 15.69241329 7.00291092 18 9 C18.61663406 10.91495991 19.14784954 12.85811097 19.625 14.8125 C20.01558594 16.36904297 20.01558594 16.36904297 20.4140625 17.95703125 C21 21 21 21 21 26 C11.76 26 2.52 26 -7 26 C-7 18.04615385 -7 18.04615385 -5.6875 13.8125 C-5.44386719 12.99394531 -5.20023438 12.17539063 -4.94921875 11.33203125 C-4 9 -4 9 -2.45703125 7.01171875 C-0.58269212 4.71767575 -0.58269212 4.71767575 0 0 Z " fill="#FEA29B" transform="translate(43,73)"/>
<path d="M0 0 C0.66 0 1.32 0 2 0 C2.33 2.31 2.66 4.62 3 7 C4.32 7 5.64 7 7 7 C7.020625 7.7425 7.04125 8.485 7.0625 9.25 C8.21098377 12.61888573 9.82591628 13.75164017 12.96875 15.3359375 C16.51483526 16.4952346 19.48404885 16.11516026 23 15 C26.49726521 13.36547907 26.49726521 13.36547907 29 11 C29 9.68 29 8.36 29 7 C30.32 7 31.64 7 33 7 C33.33 4.69 33.66 2.38 34 0 C34.66 0 35.32 0 36 0 C37.93774294 14.73452055 37.93774294 14.73452055 34.5 19.375 C34.03464844 19.97183594 33.56929687 20.56867188 33.08984375 21.18359375 C30.99876236 24.66872941 32.12994438 28.22549401 33 32 C33.1753125 32.80179688 33.350625 33.60359375 33.53125 34.4296875 C33.8686327 35.94294814 34.22227027 37.45274729 34.59765625 38.95703125 C35 41 35 41 35 45 C34.01 44.67 33.02 44.34 32 44 C31.19280388 41.20745754 30.55143164 38.53111148 30 35.6875 C28.69158839 28.83188462 28.69158839 28.83188462 25 23 C24.8125 20.25 24.8125 20.25 25 18 C24.2265625 18.2475 24.2265625 18.2475 23.4375 18.5 C19.12290849 19.38504441 15.17873852 19.39291284 11 18 C10.87625 19.11375 10.7525 20.2275 10.625 21.375 C10 25 10 25 8 27 C5.89460214 32.51029967 4.63594755 38.14928255 4 44 C2.515 44.495 2.515 44.495 1 45 C1.44468996 40.84956039 1.96567679 36.904464 3.0625 32.875 C3.95043225 29.20488002 4.54237649 26.71915311 4 23 C3.17010606 21.83646626 2.31240124 20.69258077 1.4375 19.5625 C-2.59472178 13.77467604 -0.86933871 6.61041713 0 0 Z M2 12 C3.3697164 15.99500618 5.25722422 18.80009492 8 22 C8.33 20.35 8.66 18.7 9 17 C5.82662252 13.75348408 5.82662252 13.75348408 2 12 Z M27 17 C27.33 18.65 27.66 20.3 28 22 C30.74277578 18.80009492 32.6302836 15.99500618 34 12 C31.59244254 12 28.75431241 15.50696816 27 17 Z " fill="#A2566F" transform="translate(32,55)"/>
<path d="M0 0 C0.66 0 1.32 0 2 0 C1.94199219 0.845625 1.88398438 1.69125 1.82421875 2.5625 C1.37220835 10.37598485 1.37220835 10.37598485 4.5625 17.25 C6.67069111 20.11666214 7.35086445 21.67756193 7 25.25 C6.71276501 26.84234155 6.37345135 28.42564628 6 30 C5.62681641 31.60294922 5.62681641 31.60294922 5.24609375 33.23828125 C4.53305438 36.16966532 3.78374299 39.08684211 3 42 C0.69 42 -1.62 42 -4 42 C-3.67515625 41.07380859 -3.67515625 41.07380859 -3.34375 40.12890625 C-1.21387134 33.65052533 0.63201218 27.08003045 -2 20.5 C-4.78118915 13.54702712 -2.64647734 6.66345188 0 0 Z " fill="#FABCB2" transform="translate(30,57)"/>
<path d="M0 0 C0.66 0 1.32 0 2 0 C5.26578109 8.22277025 6.32052781 14.69868047 3 23 C2.17084688 29.78274441 3.76662766 35.63223005 6 42 C3.69 42 1.38 42 -1 42 C-1.67617524 39.62734939 -2.34108226 37.25244645 -3 34.875 C-3.19078125 34.20984375 -3.3815625 33.5446875 -3.578125 32.859375 C-4.68981971 28.80962997 -5.43201933 25.19418762 -5 21 C-3.90625 19.12109375 -3.90625 19.12109375 -2.5 17.4375 C1.21250172 12.07267358 0.42983606 6.26605455 0 0 Z " fill="#F9BBB1" transform="translate(68,57)"/>
<path d="M0 0 C3.0625 1.6875 3.0625 1.6875 6 4 C7.3910017 4.8207443 8.78709566 5.63290405 10.1875 6.4375 C13.50529261 8.51588732 15.58311434 10.22163824 17 14 C16.6875 16.8125 16.6875 16.8125 16 19 C15.7525 18.443125 15.505 17.88625 15.25 17.3125 C12.64135247 12.48650208 9.78184478 9.63001463 5 7 C4.29875 6.46375 3.5975 5.9275 2.875 5.375 C-0.87795723 2.62283136 -4.4853946 2.52477838 -9 3 C-11.34942646 5.18672862 -11.34942646 5.18672862 -13 8 C-13.5775 8.763125 -14.155 9.52625 -14.75 10.3125 C-15.36875 11.1478125 -15.36875 11.1478125 -16 12 C-17 9 -17 9 -15.3125 5.4375 C-11.96124494 -0.57923205 -6.31764369 -0.89619814 0 0 Z " fill="#A0556F" transform="translate(54,13)"/>
<path d="M0 0 C0.66 0.33 1.32 0.66 2 1 C0.35 4.63 -1.3 8.26 -3 12 C-5.97 12 -8.94 12 -12 12 C-10.62523555 6.80644539 -7.25658407 3.99572509 -3 1 C-2.01 0.67 -1.02 0.34 0 0 Z " fill="#FA9F99" transform="translate(26,87)"/>
<path d="M0 0 C6.15867912 1.00549863 8.74645915 3.38038193 12.71484375 8.125 C14 10 14 10 14 12 C11.03 12 8.06 12 5 12 C3.35 8.04 1.7 4.08 0 0 Z " fill="#FA9F99" transform="translate(72,87)"/>
<path d="M0 0 C1.79041248 3.23831126 2.73750239 6.41415108 3.625 10 C3.88539062 11.03125 4.14578125 12.0625 4.4140625 13.125 C5 16 5 16 5 20 C4.01 19.67 3.02 19.34 2 19 C1.015625 16.26953125 1.015625 16.26953125 0.25 12.8125 C-0.01296875 11.68457031 -0.2759375 10.55664062 -0.546875 9.39453125 C-1.00568427 5.95741698 -0.75568523 3.36484167 0 0 Z " fill="#AC6175" transform="translate(62,80)"/>
<path d="M0 0 C1.39572052 -0.02736707 2.79160221 -0.04655989 4.1875 -0.0625 C4.96480469 -0.07410156 5.74210937 -0.08570313 6.54296875 -0.09765625 C9 0 9 0 14 1 C14 5.95 14 10.9 14 16 C13.67 16 13.34 16 13 16 C13 11.71 13 7.42 13 3 C8.38 3 3.76 3 -1 3 C-0.67 2.01 -0.34 1.02 0 0 Z " fill="#BE7380" transform="translate(57,33)"/>
<path d="M0 0 C4.62 0 9.24 0 14 0 C14 0.99 14 1.98 14 3 C11.17283905 3.94238698 9.36823877 4.13465647 6.4375 4.125 C5.25994141 4.12886719 5.25994141 4.12886719 4.05859375 4.1328125 C2 4 2 4 0 3 C0 2.01 0 1.02 0 0 Z " fill="#F66C74" transform="translate(43,73)"/>
<path d="M0 0 C2.16874252 0.50603992 3.99967627 0.99983813 6 2 C6 2.99 6 3.98 6 5 C6.66 5.33 7.32 5.66 8 6 C8 7.32 8 8.64 8 10 C7.34 10 6.68 10 6 10 C5.67 10.66 5.34 11.32 5 12 C3 10 3 10 2.875 6.375 C2.91625 5.26125 2.9575 4.1475 3 3 C2.01 3 1.02 3 0 3 C0 2.01 0 1.02 0 0 Z " fill="#FAD9DA" transform="translate(31,52)"/>
<path d="M0 0 C0 0.99 0 1.98 0 3 C-0.99 3 -1.98 3 -3 3 C-2.938125 4.11375 -2.87625 5.2275 -2.8125 6.375 C-2.874375 7.57125 -2.93625 8.7675 -3 10 C-3.99 10.66 -4.98 11.32 -6 12 C-6 11.34 -6 10.68 -6 10 C-6.66 9.67 -7.32 9.34 -8 9 C-5.83333333 0 -5.83333333 0 0 0 Z " fill="#F9D8DA" transform="translate(69,52)"/>
<path d="M0 0 C1.32 0.66 2.64 1.32 4 2 C4.25 4.25 4.25 4.25 4 7 C2.0625 9.3125 2.0625 9.3125 0 11 C-0.33 11 -0.66 11 -1 11 C-1 9.35 -1 7.7 -1 6 C-0.01 5.67 0.98 5.34 2 5 C2 4.34 2 3.68 2 3 C1.34 3 0.68 3 0 3 C0 2.01 0 1.02 0 0 Z " fill="#F69B97" transform="translate(73,43)"/>
<path d="M0 0 C0.66 0 1.32 0 2 0 C2 0.99 2 1.98 2 3 C1.34 3 0.68 3 0 3 C0 3.66 0 4.32 0 5 C0.99 5.33 1.98 5.66 3 6 C3 7.65 3 9.3 3 11 C0 10 0 10 -2 7 C-2.25 4.4375 -2.25 4.4375 -2 2 C-1.34 1.34 -0.68 0.68 0 0 Z " fill="#F69C98" transform="translate(25,43)"/>
<path d="M0 0 C2.18975773 3.28463659 2.99806563 6.20696275 4 10 C3.01 10 2.02 10 1 10 C0.63720544 8.71073008 0.28503302 7.41846728 -0.0625 6.125 C-0.35833984 5.04605469 -0.35833984 5.04605469 -0.66015625 3.9453125 C-1 2 -1 2 0 0 Z " fill="#A45C72" transform="translate(73,90)"/>
<path d="M0 0 C2.97 0 5.94 0 9 0 C9.33 0.66 9.66 1.32 10 2 C6.37 2.33 2.74 2.66 -1 3 C-0.67 2.01 -0.34 1.02 0 0 Z " fill="#A65C71" transform="translate(57,33)"/>
<path d="M0 0 C0.66 0 1.32 0 2 0 C2.36923077 5.53846154 2.36923077 5.53846154 0.5 7.875 C-0.2425 8.431875 -0.2425 8.431875 -1 9 C-2.25541557 5.23375329 -1.37061958 3.62811066 0 0 Z " fill="#EDAEA8" transform="translate(30,57)"/>
<path d="M0 0 C0.66 0 1.32 0 2 0 C3.99785435 4.1205746 4.17835515 7.45194365 4 12 C3.67 12 3.34 12 3 12 C2.67 9.36 2.34 6.72 2 4 C1.01 4 0.02 4 -1 4 C-0.67 2.68 -0.34 1.36 0 0 Z " fill="#C2707E" transform="translate(72,59)"/>
<path d="M0 0 C0.66 0 1.32 0 2 0 C2.33 2.64 2.66 5.28 3 8 C2.01 7.67 1.02 7.34 0 7 C0 4.69 0 2.38 0 0 Z " fill="#A65970" transform="translate(64,92)"/>
<path d="M0 0 C-2.55068845 2.35448165 -3.71017358 2.98327924 -7.25 3.1875 C-8.1575 3.125625 -9.065 3.06375 -10 3 C-10 2.34 -10 1.68 -10 1 C-6.59437148 0.22157062 -3.49234244 -0.09978121 0 0 Z " fill="#A45971" transform="translate(67,42)"/>
</svg>
