<?xml version="1.0" encoding="UTF-8"?>
<svg version="1.1" xmlns="http://www.w3.org/2000/svg" width="100" height="100">
<path d="M0 0 C0.83208984 -0.00191345 1.66417969 -0.0038269 2.52148438 -0.00579834 C4.27995099 -0.00715874 6.0384277 -0.00347238 7.796875 0.00488281 C10.48981262 0.01558452 13.18208314 0.00498279 15.875 -0.0078125 C17.58333481 -0.00649088 19.2916692 -0.00392843 21 0 C21.80630859 -0.00404846 22.61261719 -0.00809692 23.44335938 -0.01226807 C27.31474692 0.0202358 29.20466426 0.06873451 32.5 2.265625 C32.8984375 5.234375 32.8984375 5.234375 32.875 8.765625 C32.88660156 10.51359375 32.88660156 10.51359375 32.8984375 12.296875 C32.76695313 13.2765625 32.63546875 14.25625 32.5 15.265625 C31.51 15.925625 30.52 16.585625 29.5 17.265625 C28.77034634 19.82845242 28.77034634 19.82845242 28.5 22.265625 C29.221875 22.3275 29.94375 22.389375 30.6875 22.453125 C34.3997565 23.52555466 36.01221068 25.36320413 38.5 28.265625 C39.4300889 31.0558917 39.68698769 33.03092042 39.81640625 35.93359375 C39.85830078 36.82626953 39.90019531 37.71894531 39.94335938 38.63867188 C39.98267578 39.56744141 40.02199219 40.49621094 40.0625 41.453125 C40.10568359 42.39349609 40.14886719 43.33386719 40.19335938 44.30273438 C40.29938665 46.62355354 40.40145029 48.94447825 40.5 51.265625 C40.95197754 50.78335449 41.40395508 50.30108398 41.86962891 49.80419922 C44.40750648 47.40921502 46.90723599 47.46760623 50.28125 47.19921875 C54.39191764 47.3222493 56.50522616 49.23532352 59.25 52.078125 C60.88943245 54.94713179 61.36999017 56.95037441 61.5 60.265625 C59.63147915 65.60809795 57.4099475 68.85998082 53.3515625 72.91015625 C52.85715668 73.4060173 52.36275085 73.90187836 51.85336304 74.4127655 C50.81428782 75.45019243 49.77031 76.48273036 48.72167969 77.51049805 C47.12382945 79.07927425 45.54560536 80.66601065 43.96875 82.25585938 C34.39791876 91.76801835 34.39791876 91.76801835 27.5625 92.640625 C23.54300962 92.1484425 21.55459256 90.90368221 18.5 88.265625 C17.328125 85.1171875 17.328125 85.1171875 16.5 82.265625 C15.57662842 82.27609863 14.65325684 82.28657227 13.7019043 82.29736328 C10.27463282 82.3314569 6.84754167 82.35652946 3.42016602 82.37548828 C1.93706417 82.38554321 0.45398212 82.39918904 -1.02905273 82.41650391 C-3.16134531 82.44077506 -5.29337569 82.45211299 -7.42578125 82.4609375 C-9.35031128 82.47664795 -9.35031128 82.47664795 -11.3137207 82.49267578 C-14.5 82.265625 -14.5 82.265625 -17.5 80.265625 C-18.42146351 77.50123447 -18.63089829 75.83368747 -18.64526367 72.98120117 C-18.65483345 71.68922066 -18.65483345 71.68922066 -18.66459656 70.37113953 C-18.66570938 69.44299942 -18.6668222 68.51485931 -18.66796875 67.55859375 C-18.67129715 66.60044266 -18.67462555 65.64229156 -18.67805481 64.65510559 C-18.68311893 62.62676473 -18.68546329 60.59841554 -18.68530273 58.57006836 C-18.68748415 55.47560778 -18.70563139 52.38150663 -18.72460938 49.28710938 C-18.72754446 47.31510538 -18.72952848 45.3430997 -18.73046875 43.37109375 C-18.73765427 42.44902634 -18.74483978 41.52695892 -18.75224304 40.57695007 C-18.73147391 34.69867295 -18.44895061 29.75221716 -14.6875 24.953125 C-12.24658707 23.07013503 -10.53500987 22.60284832 -7.5 22.265625 C-7.77034634 19.82845242 -7.77034634 19.82845242 -8.5 17.265625 C-9.49 16.605625 -10.48 15.945625 -11.5 15.265625 C-11.8984375 12.296875 -11.8984375 12.296875 -11.875 8.765625 C-11.88273437 7.6003125 -11.89046875 6.435 -11.8984375 5.234375 C-11.76695313 4.2546875 -11.63546875 3.275 -11.5 2.265625 C-7.6478084 -0.30250273 -4.46523118 -0.02241985 0 0 Z " fill="#EF5B56" transform="translate(28.5,3.734375)"/>
<path d="M0 0 C3.2178069 2.31138242 4.72844652 5.20231164 6 8.9375 C6 14.19868755 3.89172222 17.91971129 0.62744141 21.87426758 C-0.28859863 22.78845459 -1.20463867 23.7026416 -2.1484375 24.64453125 C-2.64284332 25.1403923 -3.13724915 25.63625336 -3.64663696 26.1471405 C-4.68571218 27.18456743 -5.72969 28.21710536 -6.77832031 29.24487305 C-8.37617055 30.81364925 -9.95439464 32.40038565 -11.53125 33.99023438 C-21.10208124 43.50239335 -21.10208124 43.50239335 -27.9375 44.375 C-31.95699038 43.8828175 -33.94540744 42.63805721 -37 40 C-38.171875 36.8515625 -38.171875 36.8515625 -39 34 C-39.92337158 34.01047363 -40.84674316 34.02094727 -41.7980957 34.03173828 C-45.22536718 34.0658319 -48.65245833 34.09090446 -52.07983398 34.10986328 C-53.56293583 34.11991821 -55.04601788 34.13356404 -56.52905273 34.15087891 C-58.66134531 34.17515006 -60.79337569 34.18648799 -62.92578125 34.1953125 C-64.85031128 34.21102295 -64.85031128 34.21102295 -66.8137207 34.22705078 C-70 34 -70 34 -73 32 C-73.51171875 29.8359375 -73.51171875 29.8359375 -73.6875 27.375 C-73.75324219 26.55773437 -73.81898437 25.74046875 -73.88671875 24.8984375 C-73.92410156 24.27195312 -73.96148437 23.64546875 -74 23 C-72.2531189 23.02525757 -72.2531189 23.02525757 -70.47094727 23.05102539 C-66.11495054 23.10198286 -61.76070133 23.09319633 -57.40454102 23.06713867 C-55.52591766 23.06407245 -53.64719488 23.07681789 -51.76879883 23.10620117 C-40.78220242 23.58979361 -40.78220242 23.58979361 -30.77685547 19.92529297 C-28.62134561 17.72141262 -26.83832103 15.46365537 -25 13 C-24.34 13 -23.68 13 -23 13 C-22.76152344 12.43667969 -22.52304687 11.87335937 -22.27734375 11.29296875 C-20.72208229 8.50110796 -18.82795576 6.56307592 -16.5625 4.3125 C-15.78003906 3.52488281 -14.99757812 2.73726562 -14.19140625 1.92578125 C-9.91134304 -1.83548642 -5.24294232 -1.4900994 0 0 Z " fill="#FED34E" transform="translate(84,52)"/>
<path d="M0 0 C0.83208984 -0.00191345 1.66417969 -0.0038269 2.52148438 -0.00579834 C4.27995099 -0.00715874 6.0384277 -0.00347238 7.796875 0.00488281 C10.48981262 0.01558452 13.18208314 0.00498279 15.875 -0.0078125 C17.58333481 -0.00649088 19.2916692 -0.00392843 21 0 C21.80630859 -0.00404846 22.61261719 -0.00809692 23.44335938 -0.01226807 C27.31474692 0.0202358 29.20466426 0.06873451 32.5 2.265625 C32.8984375 5.234375 32.8984375 5.234375 32.875 8.765625 C32.88660156 10.51359375 32.88660156 10.51359375 32.8984375 12.296875 C32.76695313 13.2765625 32.63546875 14.25625 32.5 15.265625 C31.51 15.925625 30.52 16.585625 29.5 17.265625 C28.77034634 19.82845242 28.77034634 19.82845242 28.5 22.265625 C29.221875 22.3275 29.94375 22.389375 30.6875 22.453125 C34.45115098 23.54040195 36.03870956 25.25738113 38.5 28.265625 C38.995 30.740625 38.995 30.740625 39.5 33.265625 C20.69 33.265625 1.88 33.265625 -17.5 33.265625 C-17.5 28.265625 -17.5 28.265625 -15.3125 25.515625 C-12.50757452 23.27168462 -11.01865145 22.5672237 -7.5 22.265625 C-7.77034634 19.82845242 -7.77034634 19.82845242 -8.5 17.265625 C-9.49 16.605625 -10.48 15.945625 -11.5 15.265625 C-11.8984375 12.296875 -11.8984375 12.296875 -11.875 8.765625 C-11.88273437 7.6003125 -11.89046875 6.435 -11.8984375 5.234375 C-11.76695313 4.2546875 -11.63546875 3.275 -11.5 2.265625 C-7.6478084 -0.30250273 -4.46523118 -0.02241985 0 0 Z " fill="#EDEDED" transform="translate(28.5,3.734375)"/>
<path d="M0 0 C0.83208984 -0.00191345 1.66417969 -0.0038269 2.52148438 -0.00579834 C4.27995099 -0.00715874 6.0384277 -0.00347238 7.796875 0.00488281 C10.48981262 0.01558452 13.18208314 0.00498279 15.875 -0.0078125 C17.58333481 -0.00649088 19.2916692 -0.00392843 21 0 C21.80630859 -0.00404846 22.61261719 -0.00809692 23.44335938 -0.01226807 C27.31474692 0.0202358 29.20466426 0.06873451 32.5 2.265625 C32.79296875 5.3046875 32.79296875 5.3046875 32.6875 8.890625 C32.64689453 10.67339844 32.64689453 10.67339844 32.60546875 12.4921875 C32.57066406 13.40742188 32.53585938 14.32265625 32.5 15.265625 C28.63729115 17.83863496 24.58634565 17.55444776 20.12109375 17.53125 C19.3126149 17.53316345 18.50413605 17.5350769 17.67115784 17.53704834 C15.96574593 17.5384068 14.26032356 17.53473405 12.55493164 17.52636719 C9.94328653 17.51564875 7.33232709 17.52628091 4.72070312 17.5390625 C3.06249848 17.53774112 1.40429426 17.53517916 -0.25390625 17.53125 C-1.03520401 17.53529846 -1.81650177 17.53934692 -2.62147522 17.54351807 C-6.44360502 17.51040245 -8.24373252 17.43646999 -11.5 15.265625 C-11.8984375 12.296875 -11.8984375 12.296875 -11.875 8.765625 C-11.88273437 7.6003125 -11.89046875 6.435 -11.8984375 5.234375 C-11.76695313 4.2546875 -11.63546875 3.275 -11.5 2.265625 C-7.6478084 -0.30250273 -4.46523118 -0.02241985 0 0 Z " fill="#E53B37" transform="translate(28.5,3.734375)"/>
<path d="M0 0 C3.29523329 1.40149963 3.95362044 1.92115475 5.875 5.1875 C7.25577714 9.8668003 7.01820966 11.57546344 5 16 C0.30738342 22.04339618 -5.24193994 27.45389712 -10.625 32.875 C-11.36234375 33.63296875 -12.0996875 34.3909375 -12.859375 35.171875 C-13.57867187 35.89632812 -14.29796875 36.62078125 -15.0390625 37.3671875 C-15.68053223 38.01800293 -16.32200195 38.66881836 -16.98291016 39.33935547 C-20.07666636 41.88640579 -22.99258281 42.87139355 -26.9375 43.375 C-30.86854813 42.89364717 -32.9523224 41.48066781 -36 39 C-36.495 37.515 -36.495 37.515 -37 36 C-35.989375 36.0825 -34.97875 36.165 -33.9375 36.25 C-24.57705628 35.65568611 -18.88201491 28.27617817 -12.6875 21.9375 C-11.78193359 21.02677734 -10.87636719 20.11605469 -9.94335938 19.17773438 C-3.153757 12.81434416 -3.153757 12.81434416 -0.375 4.3125 C-0.30023438 3.50425781 -0.22546875 2.69601563 -0.1484375 1.86328125 C-0.09945312 1.24839844 -0.05046875 0.63351563 0 0 Z " fill="#FFAB27" transform="translate(83,53)"/>
<path d="M0 0 C12.87 0 25.74 0 39 0 C38.01 1.98 37.02 3.96 36 6 C35.30092586 8.73572585 35.30092586 8.73572585 35 11 C30.64007129 11.04945386 26.28029138 11.08574488 21.92016602 11.10986328 C20.43706417 11.11991821 18.95398212 11.13356404 17.47094727 11.15087891 C15.33865469 11.17515006 13.20662431 11.18648799 11.07421875 11.1953125 C9.14968872 11.21102295 9.14968872 11.21102295 7.1862793 11.22705078 C4 11 4 11 1 9 C0.67 6.03 0.34 3.06 0 0 Z " fill="#EDEDED" transform="translate(10,75)"/>
<path d="M0 0 C12.54 0 25.08 0 38 0 C38 2.97 38 5.94 38 9 C25.46 9 12.92 9 0 9 C0 6.03 0 3.06 0 0 Z " fill="#FEA626" transform="translate(20,47)"/>
<path d="M0 0 C3.33333333 3.33333333 6.66666667 6.66666667 10 10 C7.35577116 16.03046068 2.32190744 20.43626642 -3.0625 24.0625 C-6.74176768 25.23673437 -9.27150451 24.87729306 -13 24 C-14 23 -14 23 -14.3125 19.8125 C-13.59751872 11.08972843 -5.96883506 5.76379875 0 0 Z " fill="#FEB64D" transform="translate(59,65)"/>
<path d="M0 0 C2.0304137 0.00315772 4.05936624 -0.02029792 6.08959961 -0.0456543 C8.01255859 -0.04662109 8.01255859 -0.04662109 9.97436523 -0.04760742 C11.14926514 -0.05058838 12.32416504 -0.05356934 13.53466797 -0.05664062 C16.83848985 0.34421293 18.20065853 1.07730416 20.60327148 3.31567383 C19.72827148 10.19067383 19.72827148 10.19067383 18.60327148 11.31567383 C16.60368785 11.35648166 14.60281894 11.35821739 12.60327148 11.31567383 C12.60327148 9.33567383 12.60327148 7.35567383 12.60327148 5.31567383 C11.61327148 5.81067383 11.61327148 5.81067383 10.60327148 6.31567383 C9.94772029 8.84300618 9.94772029 8.84300618 9.60327148 11.31567383 C7.62327148 11.31567383 5.64327148 11.31567383 3.60327148 11.31567383 C3.27327148 9.66567383 2.94327148 8.01567383 2.60327148 6.31567383 C2.27327148 6.31567383 1.94327148 6.31567383 1.60327148 6.31567383 C1.27327148 7.96567383 0.94327148 9.61567383 0.60327148 11.31567383 C-1.37672852 11.31567383 -3.35672852 11.31567383 -5.39672852 11.31567383 C-5.39672852 9.66567383 -5.39672852 8.01567383 -5.39672852 6.31567383 C-6.71672852 6.31567383 -8.03672852 6.31567383 -9.39672852 6.31567383 C-9.39672852 7.96567383 -9.39672852 9.61567383 -9.39672852 11.31567383 C-14.27172852 10.44067383 -14.27172852 10.44067383 -15.39672852 9.31567383 C-15.64672852 5.87817383 -15.64672852 5.87817383 -15.39672852 2.31567383 C-10.6585514 -0.84311092 -5.57434005 -0.01819258 0 0 Z " fill="#EE524F" transform="translate(32.396728515625,3.684326171875)"/>
<path d="M0 0 C3.29523329 1.40149963 3.95362044 1.92115475 5.875 5.1875 C7.25577714 9.8668003 7.01820966 11.57546344 5 16 C1.30842587 21.05417086 -3.08423022 25.16330164 -8 29 C-9.65 27.35 -11.3 25.7 -13 24 C-11.54189378 20.60534645 -9.66233272 18.47748287 -7 15.9375 C-3.16687247 12.26643485 -0.84506236 9.71821717 -0.375 4.3125 C-0.30023438 3.50425781 -0.22546875 2.69601563 -0.1484375 1.86328125 C-0.09945312 1.24839844 -0.05046875 0.63351563 0 0 Z " fill="#FFCA2A" transform="translate(83,53)"/>
<path d="M0 0 C1.47583955 0.0001591 2.95168467 0.00585225 4.42749023 0.01586914 C5.20293686 0.01728409 5.97838348 0.01869904 6.77732849 0.02015686 C9.26361893 0.02577194 11.74982059 0.03832693 14.23608398 0.05102539 C15.91772331 0.05603845 17.59936405 0.06060169 19.28100586 0.06469727 C23.41189965 0.07574626 27.54272674 0.09302094 31.67358398 0.11352539 C31.67358398 2.09352539 31.67358398 4.07352539 31.67358398 6.11352539 C19.79358398 6.11352539 7.91358398 6.11352539 -4.32641602 6.11352539 C-4.32641602 0.14765383 -4.32641602 0.14765383 0 0 Z " fill="#DFDFDF" transform="translate(25.326416015625,19.886474609375)"/>
<path d="M0 0 C2.64 0 5.28 0 8 0 C8.17591619 3.18678936 8.28136778 6.3723164 8.375 9.5625 C8.45041016 10.90538086 8.45041016 10.90538086 8.52734375 12.27539062 C8.65991639 18.3074457 7.6864072 21.44457952 3.49462891 25.83569336 C2 27 2 27 0 27 C0 18.09 0 9.18 0 0 Z " fill="#E53A36" transform="translate(59,38)"/>
<path d="M0 0 C0.99 0.33 1.98 0.66 3 1 C5.3555448 1.15179014 7.71475123 1.24899289 10.07421875 1.31640625 C10.7580513 1.33718735 11.44188385 1.35796844 12.1464386 1.37937927 C14.3266921 1.44466154 16.50706405 1.50366017 18.6875 1.5625 C20.16732986 1.60570553 21.64714783 1.64932047 23.12695312 1.69335938 C26.75117622 1.80032083 30.37553189 1.90164823 34 2 C34 3.65 34 5.3 34 7 C29.64007129 7.04945386 25.28029138 7.08574488 20.92016602 7.10986328 C19.43706417 7.11991821 17.95398212 7.13356404 16.47094727 7.15087891 C14.33865469 7.17515006 12.20662431 7.18648799 10.07421875 7.1953125 C8.14968872 7.21102295 8.14968872 7.21102295 6.1862793 7.22705078 C3 7 3 7 0 5 C-0.1875 2.375 -0.1875 2.375 0 0 Z " fill="#E1E1E1" transform="translate(11,79)"/>
<path d="M0 0 C9.9 0 19.8 0 30 0 C28 4 28 4 27 5 C25.00035018 5.08758003 22.9976389 5.10696576 20.99609375 5.09765625 C19.78115234 5.09443359 18.56621094 5.09121094 17.31445312 5.08789062 C16.03505859 5.07951172 14.75566406 5.07113281 13.4375 5.0625 C12.15423828 5.05798828 10.87097656 5.05347656 9.54882812 5.04882812 C6.36583978 5.03699545 3.18294238 5.02051068 0 5 C0 3.35 0 1.7 0 0 Z " fill="#FEB449" transform="translate(20,47)"/>
<path d="M0 0 C9.76827372 -0.46189736 9.76827372 -0.46189736 14 1.125 C16.52220382 3.48956608 17.71027478 5.80962709 19 9 C19 9.66 19 10.32 19 11 C16.03 11 13.06 11 10 11 C9.649375 9.906875 9.29875 8.81375 8.9375 7.6875 C7.62316459 4.53564713 6.46435287 3.37683541 3.3125 2.0625 C2.219375 1.711875 1.12625 1.36125 0 1 C0 0.67 0 0.34 0 0 Z " fill="#E1E1E1" transform="translate(49,26)"/>
<path d="M0 0 C9.9 0 19.8 0 30 0 C30.33 0.99 30.66 1.98 31 3 C20.77 3 10.54 3 0 3 C0 2.01 0 1.02 0 0 Z " fill="#EEE9E8" transform="translate(19,64)"/>
<path d="M0 0 C11.55 0 23.1 0 35 0 C35 1.98 35 3.96 35 6 C32.03 6 29.06 6 26 6 C26 4.35 26 2.7 26 1 C17.42 1 8.84 1 0 1 C0 0.67 0 0.34 0 0 Z " fill="#CCBFBF" transform="translate(22,20)"/>
<path d="M0 0 C0.66 0.33 1.32 0.66 2 1 C2 2.65 2 4.3 2 6 C1.01 6.33 0.02 6.66 -1 7 C-1.04254356 5.00045254 -1.04080783 2.99958364 -1 1 C-0.67 0.67 -0.34 0.34 0 0 Z " fill="#D93231" transform="translate(53,9)"/>
</svg>
