<?xml version="1.0" encoding="UTF-8"?>
<svg version="1.1" xmlns="http://www.w3.org/2000/svg" width="100" height="100">
<path d="M0 0 C3.90704392 1.40051491 6.88495348 3.27299192 9.16015625 6.796875 C11.18942313 11.5161003 12.19874755 16.95410915 11 22 C9.22050249 24.51192838 7.42288898 26.0314027 5 28 C5.49371094 28.54269531 5.98742187 29.08539062 6.49609375 29.64453125 C7.13675781 30.35996094 7.77742188 31.07539062 8.4375 31.8125 C9.07558594 32.52019531 9.71367188 33.22789063 10.37109375 33.95703125 C12.9676275 37.21359516 13.12766052 39.94298544 13.1328125 43.96484375 C13.13474609 45.41213867 13.13474609 45.41213867 13.13671875 46.88867188 C13.13285156 47.89478516 13.12898438 48.90089844 13.125 49.9375 C13.13080078 51.44086914 13.13080078 51.44086914 13.13671875 52.97460938 C13.13542969 53.94076172 13.13414063 54.90691406 13.1328125 55.90234375 C13.13168457 56.78398193 13.13055664 57.66562012 13.12939453 58.57397461 C13.00743369 60.8606254 12.58335306 62.79631985 12 65 C12.09003157 67.37041609 12.09003157 67.37041609 12.4375 69.75 C12.59025391 70.94882813 12.59025391 70.94882813 12.74609375 72.171875 C12.82988281 72.77515625 12.91367188 73.3784375 13 74 C11.55753906 74.44279297 11.55753906 74.44279297 10.0859375 74.89453125 C6.90385073 76.61094785 6.90385073 76.61094785 6.31738281 79.02880859 C5.95709224 81.58749104 5.75713891 84.10701583 5.625 86.6875 C5.55667969 87.58017578 5.48835938 88.47285156 5.41796875 89.39257812 C5.25320917 91.59329544 5.12323923 93.79656756 5 96 C-0.94 96 -6.88 96 -13 96 C-13.07476562 94.66324219 -13.14953125 93.32648438 -13.2265625 91.94921875 C-13.35787942 90.19519989 -13.49077425 88.44129866 -13.625 86.6875 C-13.67011719 85.80642578 -13.71523438 84.92535156 -13.76171875 84.01757812 C-13.96947681 81.53392493 -14.20464432 79.36387902 -15 77 C-17.91039177 74.79091287 -17.91039177 74.79091287 -21 74 C-20.91621094 73.14535156 -20.83242188 72.29070312 -20.74609375 71.41015625 C-20.64425781 70.30542969 -20.54242188 69.20070313 -20.4375 68.0625 C-20.33308594 66.96035156 -20.22867188 65.85820313 -20.12109375 64.72265625 C-20.08113281 63.82417969 -20.04117188 62.92570312 -20 62 C-20.33 61.67 -20.66 61.34 -21 61 C-21.28105447 57.44551265 -21.23187277 53.87676735 -21.25 50.3125 C-21.270625 49.31798828 -21.29125 48.32347656 -21.3125 47.29882812 C-21.35132154 40.00523071 -20.43248162 35.60218964 -15.3125 30.125 C-14.549375 29.42375 -13.78625 28.7225 -13 28 C-13.99 27.195625 -14.98 26.39125 -16 25.5625 C-18.58544572 22.96482995 -19.46691357 21.30189152 -19.5625 17.625 C-19.14670552 11.89090402 -17.67151819 6.97543058 -13.9375 2.5625 C-9.67538137 -0.87469244 -5.28229818 -0.66317904 0 0 Z M1 26 C1 26.66 1 27.32 1 28 C1.99 27.67 2.98 27.34 4 27 C3.01 26.67 2.02 26.34 1 26 Z " fill="#4051B4" transform="translate(54,2)"/>
<path d="M0 0 C3.90704392 1.40051491 6.88495348 3.27299192 9.16015625 6.796875 C11.17824396 11.49010223 12.31527747 16.99642697 11 22 C9.04156027 24.59036295 6.9238342 26.55999601 4 28 C3.01 27.67 2.02 27.34 1 27 C0.34 28.32 -0.32 29.64 -1 31 C-3.8125 31.25 -3.8125 31.25 -7 31 C-8.875 29 -8.875 29 -10 27 C-10.99 27.33 -11.98 27.66 -13 28 C-18.66880616 23.39409499 -18.66880616 23.39409499 -19.50390625 19.87890625 C-19.67194873 13.41487216 -18.13957023 7.528583 -13.9375 2.5625 C-9.67538137 -0.87469244 -5.28229818 -0.66317904 0 0 Z " fill="#FA5620" transform="translate(54,2)"/>
<path d="M0 0 C6.6 0 13.2 0 20 0 C20 6.98793653 19.78125907 13.16398313 19 20 C13.06 20 7.12 20 1 20 C0.21874093 13.16398313 0 6.98793653 0 0 Z " fill="#FEB64C" transform="translate(40,78)"/>
<path d="M0 0 C2 2 2 2 2.1953125 4.8203125 C2.17210938 5.91085938 2.14890625 7.00140625 2.125 8.125 C2.10695313 9.22070312 2.08890625 10.31640625 2.0703125 11.4453125 C2.04710938 12.28835937 2.02390625 13.13140625 2 14 C-1.5323113 16.15384835 -3.50079244 17.02538344 -7.6875 16.8125 C-11 16 -11 16 -14 14 C-15.04323284 10.83868836 -15.02054008 8.16208791 -14 5 C-10.14869388 1.39971011 -5.31682871 -2.28854801 0 0 Z " fill="#FEB54C" transform="translate(56,10)"/>
<path d="M0 0 C0.12910853 6.74233419 -0.202163 13.30386804 -1 20 C-3.31 20 -5.62 20 -8 20 C-9.0712828 13.97403427 -9.09945415 8.11090483 -9 2 C-9.66 1.67 -10.32 1.34 -11 1 C-7.26513121 0.4254048 -3.78706732 0 0 0 Z " fill="#FCB54D" transform="translate(60,78)"/>
<path d="M0 0 C4 2 4 2 6 4 C6.11839409 10.50180877 5.09318551 16.85998917 3 23 C2.01 22.67 1.02 22.34 0 22 C0 14.74 0 7.48 0 0 Z " fill="#FAB44E" transform="translate(33,41)"/>
<path d="M0 0 C0 7.26 0 14.52 0 22 C-0.99 22.33 -1.98 22.66 -3 23 C-3.50838564 20.96040523 -4.00633886 18.91820862 -4.5 16.875 C-4.7784375 15.73804688 -5.056875 14.60109375 -5.34375 13.4296875 C-5.97138888 10.14952715 -6.25807371 7.32628338 -6 4 C-2.84210526 0 -2.84210526 0 0 0 Z " fill="#FCB54E" transform="translate(67,41)"/>
<path d="M0 0 C2.64 0 5.28 0 8 0 C9 3 9 3 8.0625 5.1875 C7.711875 5.785625 7.36125 6.38375 7 7 C5.02 7 3.04 7 1 7 C-0.0625 4.625 -0.0625 4.625 -1 2 C-0.67 1.34 -0.34 0.68 0 0 Z " fill="#F5940A" transform="translate(46,26)"/>
<path d="M0 0 C0.66 0 1.32 0 2 0 C2.33 5.28 2.66 10.56 3 16 C1.68 16 0.36 16 -1 16 C-0.67 10.72 -0.34 5.44 0 0 Z " fill="#FF9D0E" transform="translate(49,82)"/>
</svg>
